<?xml version="1.0" encoding="utf-8"?>
<!-- Generator: Adobe Illustrator 22.0.0, SVG Export Plug-In . SVG Version: 6.00 Build 0)  -->
<svg version="1.1" id="Layer_1" xmlns="http://www.w3.org/2000/svg" xmlns:xlink="http://www.w3.org/1999/xlink" x="0px" y="0px"
	 viewBox="0 0 280 32.4" style="enable-background:new 0 0 280 32.4;" xml:space="preserve">
<style type="text/css">
	.st0{fill:#FFFFFF;}
</style>
<path class="st0" d="M164,16.3c0,4.5-1,8.1-3,11c-2.4,3.4-5.7,5.1-10,5.1c-4,0-7.2-1.5-9.5-4.4c-2.3-2.9-3.5-6.9-3.5-11.8
	c0-4.6,1.1-8.3,3.2-11.3c2.4-3.2,5.6-4.8,9.7-4.8c4.2,0,7.4,1.6,9.8,4.7C162.9,7.7,164,11.5,164,16.3z M161.4,16.2
	c0-4.2-0.9-7.5-2.8-10c-1.8-2.5-4.4-3.7-7.7-3.7c-3.3,0-5.9,1.4-7.8,4.1c-1.7,2.5-2.6,5.7-2.6,9.5c0,4,0.8,7.1,2.4,9.5
	c1.8,2.8,4.5,4.2,8.1,4.2c3.5,0,6.1-1.4,8-4.3C160.6,23.2,161.4,20.1,161.4,16.2z"/>
<path class="st0" d="M122.2,20.2v12.2h-6.6V20.1L105.3,0.8h7.6l6.1,12.7l6.2-12.7h7.4L122.2,20.2z"/>
<path class="st0" d="M104,6.7h-9.1v25.7h-6.7V6.7H79V0.8H104V6.7z"/>
<path class="st0" d="M67.9,15.9l10.7,16.5h-8l-6.7-11l-6.7,11h-7.6l10.7-16.5L50.4,0.8h7.8l6.1,10.2l6.1-10.2h7.3L67.9,15.9z"/>
<path class="st0" d="M46.8,6.4H34.3v6.9h11.2v5.5H34.3v7.8h12.8v5.8H27.7V0.8h19V6.4z"/>
<path class="st0" d="M24.9,6.7h-9.1v25.7H9.1V6.7H0V0.8h24.9V6.7z"/>
<path class="st0" d="M218,31.6h-2.3v-5.3c-1,2-2.4,3.5-4.1,4.5c-1.7,1-3.8,1.5-6.3,1.5c-4.1,0-7.2-1.6-9.4-4.7c-2-2.9-3-6.8-3-11.6
	c0-4.9,1.1-8.8,3.3-11.6c2.3-3,5.5-4.4,9.6-4.4c3.1,0,5.7,0.8,7.8,2.4c2.1,1.6,3.4,4.1,4,7.3H215c-0.5-2.3-1.5-4-3.2-5.3
	c-1.7-1.3-3.5-1.9-5.7-1.9c-3.5,0-6.2,1.3-8,4c-1.7,2.5-2.5,6-2.5,10.6c0,3.6,0.9,6.6,2.7,9c1.9,2.5,4.4,3.8,7.5,3.8
	c2.7,0,5-0.9,6.8-2.8c0.9-1,1.7-2.3,2.2-3.8c0.5-1.5,0.8-3.2,0.8-5.2H206v-2.5h12V31.6z"/>
<path class="st0" d="M253.2,19.5c0,4.3-1,7.6-2.9,9.7c-2,2.1-4.7,3.2-8.3,3.2c-3.5,0-6.1-0.9-8.1-2.8c-2.2-2.2-3.3-5.5-3.3-10V0.8
	h2.8v18c0,3.9,0.7,6.7,2.1,8.5c1.4,1.7,3.5,2.6,6.4,2.6c2.9,0,5-0.8,6.3-2.3c1.5-1.7,2.3-4.6,2.3-8.6V0.8h2.8V19.5z"/>
<path class="st0" d="M280,32.4l-2.8,0l-3.4-9.9h-13.3l-3.4,9.9l-2.8,0l11.5-31.6h3.1L280,32.4z M272.9,19.9l-5.7-16.6l-5.7,16.6
	H272.9z"/>
<circle class="st0" cx="133.2" cy="29.5" r="2.9"/>
<circle class="st0" cx="226" cy="29.5" r="2.9"/>
<path class="st0" d="M191.6,32.3l-8.8-13.7c0.9-0.2,1.6-0.5,2.6-0.9c4.2-1.8,4.7-6.7,4.7-8.8c0-3-0.9-5.1-2.7-6.5
	c-1.6-1.2-4-1.9-7.3-1.9h-11.4v32h2.8V18.9h8.1l8.7,13.5L191.6,32.3z M171.5,3h8.8c2.6,0,4.5,0.6,5.6,1.8c0.9,0.9,1.4,2.3,1.4,4.1
	c0,2-0.6,4.6-1.9,5.7c-1.3,1.1-3,1.7-5.2,1.7h-8.7V3z"/>
</svg>
